Chivo-Light.ufo
<glyph name="numbersign" format="1">
  <advance width="643"/>
  <unicode hex="0023"/>
  <outline>
    <contour>
      <point x="605" y="420" type="line"/>
      <point x="605" y="478" type="line"/>
      <point x="492" y="478" type="line"/>
      <point x="542" y="696" type="line"/>
      <point x="483" y="696" type="line"/>
      <point x="434" y="478" type="line"/>
      <point x="268" y="478" type="line"/>
      <point x="318" y="696" type="line"/>
      <point x="259" y="696" type="line"/>
      <point x="210" y="478" type="line"/>
      <point x="67" y="478" type="line"/>
      <point x="67" y="420" type="line"/>
      <point x="197" y="420" type="line"/>
      <point x="158" y="246" type="line"/>
      <point x="28" y="246" type="line"/>
      <point x="28" y="188" type="line"/>
      <point x="145" y="188" type="line"/>
      <point x="103" y="0" type="line"/>
      <point x="161" y="0" type="line"/>
      <point x="203" y="188" type="line"/>
      <point x="369" y="188" type="line"/>
      <point x="327" y="0" type="line"/>
      <point x="385" y="0" type="line"/>
      <point x="427" y="188" type="line"/>
      <point x="566" y="188" type="line"/>
      <point x="566" y="246" type="line"/>
      <point x="440" y="246" type="line"/>
      <point x="479" y="420" type="line"/>
    </contour>
    <contour>
      <point x="255" y="420" type="line"/>
      <point x="421" y="420" type="line"/>
      <point x="382" y="246" type="line"/>
      <point x="216" y="246" type="line"/>
    </contour>
  </outline>
</glyph>
<glyph name="parenright" format="1">
  <advance width="288"/>
  <unicode hex="0029"/>
  <outline>
    <contour>
      <point x="217" y="419"/>
      <point x="160" y="570"/>
      <point x="58" y="686" type="curve"/>
      <point x="29" y="686" type="line"/>
      <point x="104" y="572"/>
      <point x="165" y="422"/>
      <point x="165" y="265" type="curve" smooth="yes"/>
      <point x="165" y="107"/>
      <point x="104" y="-43"/>
      <point x="29" y="-157" type="curve"/>
      <point x="58" y="-157" type="line"/>
      <point x="160" y="-41"/>
      <point x="217" y="110"/>
      <point x="217" y="265" type="curve" smooth="yes"/>
    </contour>
  </outline>
</glyph>
<glyph name="asterisk" format="1">
  <advance width="468"/>
  <unicode hex="002A"/>
  <outline>
    <contour>
      <point x="423" y="519" type="line"/>
      <point x="405" y="578" type="line"/>
      <point x="242" y="510" type="line"/>
      <point x="259" y="686" type="line"/>
      <point x="197" y="686" type="line"/>
      <point x="210" y="512" type="line"/>
      <point x="49" y="582" type="line"/>
      <point x="29" y="524" type="line"/>
      <point x="199" y="482" type="line"/>
      <point x="83" y="350" type="line"/>
      <point x="133" y="315" type="line"/>
      <point x="223" y="462" type="line"/>
      <point x="315" y="311" type="line"/>
      <point x="364" y="347" type="line"/>
      <point x="251" y="480" type="line"/>
    </contour>
  </outline>
</glyph>
<glyph name="slash" format="1">
  <advance width="600"/>
  <unicode hex="002F"/>
  <outline>
    <contour>
      <point x="564" y="686" type="line"/>
      <point x="505" y="686" type="line"/>
      <point x="15" y="-171" type="line"/>
      <point x="75" y="-171" type="line"/>
    </contour>
  </outline>
</glyph>
<glyph name="zero" format="1">
  <advance width="615"/>
  <unicode hex="0030"/>
  <outline>
    <contour>
      <point x="513" y="475" type="line" smooth="yes"/>
      <point x="513" y="609"/>
      <point x="419" y="696"/>
      <point x="292" y="696" type="curve" smooth="yes"/>
      <point x="165" y="696"/>
      <point x="71" y="609"/>
      <point x="71" y="475" type="curve" smooth="yes"/>
      <point x="71" y="211" type="line" smooth="yes"/>
      <point x="71" y="77"/>
      <point x="165" y="-10"/>
      <point x="292" y="-10" type="curve" smooth="yes"/>
      <point x="419" y="-10"/>
      <point x="513" y="77"/>
      <point x="513" y="211" type="curve" smooth="yes"/>
    </contour>
    <contour>
      <point x="459" y="205" type="line" smooth="yes"/>
      <point x="459" y="109"/>
      <point x="388" y="38"/>
      <point x="292" y="38" type="curve" smooth="yes"/>
      <point x="196" y="38"/>
      <point x="125" y="109"/>
      <point x="125" y="205" type="curve" smooth="yes"/>
      <point x="125" y="481" type="line" smooth="yes"/>
      <point x="125" y="577"/>
      <point x="196" y="648"/>
      <point x="292" y="648" type="curve" smooth="yes"/>
      <point x="388" y="648"/>
      <point x="459" y="577"/>
      <point x="459" y="481" type="curve" smooth="yes"/>
    </contour>
  </outline>
</glyph>
<glyph name="seven" format="1">
  <advance width="615"/>
  <unicode hex="0037"/>
  <outline>
    <contour>
      <point x="544" y="686" type="line"/>
      <point x="73" y="686" type="line"/>
      <point x="73" y="632" type="line"/>
      <point x="462" y="632" type="line"/>
      <point x="346" y="491"/>
      <point x="204" y="263"/>
      <point x="204" y="0" type="curve"/>
      <point x="266" y="0" type="line"/>
      <point x="264" y="26"/>
      <point x="264" y="27"/>
      <point x="264" y="46" type="curve" smooth="yes"/>
      <point x="264" y="282"/>
      <point x="423" y="521"/>
      <point x="544" y="656" type="curve"/>
    </contour>
  </outline>
</glyph>
<glyph name="eight" format="1">
  <advance width="615"/>
  <unicode hex="0038"/>
  <outline>
    <contour>
      <point x="469" y="94"/>
      <point x="413" y="38"/>
      <point x="295" y="38" type="curve" smooth="yes"/>
      <point x="175" y="38"/>
      <point x="121" y="95"/>
      <point x="121" y="183" type="curve" smooth="yes"/>
      <point x="121" y="271"/>
      <point x="186" y="328"/>
      <point x="295" y="328" type="curve" smooth="yes"/>
      <point x="404" y="328"/>
      <point x="469" y="272"/>
      <point x="469" y="183" type="curve" smooth="yes"/>
    </contour>
    <contour>
      <point x="144" y="598"/>
      <point x="202" y="648"/>
      <point x="294" y="648" type="curve" smooth="yes"/>
      <point x="386" y="648"/>
      <point x="445" y="600"/>
      <point x="445" y="512" type="curve" smooth="yes"/>
      <point x="445" y="423"/>
      <point x="377" y="376"/>
      <point x="294" y="376" type="curve" smooth="yes"/>
      <point x="211" y="376"/>
      <point x="144" y="425"/>
      <point x="144" y="512" type="curve" smooth="yes"/>
    </contour>
    <contour>
      <point x="400" y="356" type="line"/>
      <point x="458" y="385"/>
      <point x="500" y="425"/>
      <point x="500" y="512" type="curve" smooth="yes"/>
      <point x="500" y="627"/>
      <point x="418" y="696"/>
      <point x="295" y="696" type="curve" smooth="yes"/>
      <point x="172" y="696"/>
      <point x="90" y="627"/>
      <point x="90" y="512" type="curve" smooth="yes"/>
      <point x="90" y="425"/>
      <point x="131" y="385"/>
      <point x="189" y="356" type="curve"/>
      <point x="189" y="352" type="line"/>
      <point x="117" y="328"/>
      <point x="67" y="275"/>
      <point x="67" y="183" type="curve" smooth="yes"/>
      <point x="67" y="56"/>
      <point x="160" y="-10"/>
      <point x="295" y="-10" type="curve" smooth="yes"/>
      <point x="445" y="-10"/>
      <point x="523" y="67"/>
      <point x="523" y="183" type="curve" smooth="yes"/>
      <point x="523" y="278"/>
      <point x="473" y="323"/>
      <point x="400" y="352" type="curve"/>
    </contour>
  </outline>
</glyph>
<glyph name="nine" format="1">
  <advance width="615"/>
  <unicode hex="0039"/>
  <outline>
    <contour>
      <point x="451" y="205" type="line" smooth="yes"/>
      <point x="451" y="109"/>
      <point x="382" y="38"/>
      <point x="286" y="38" type="curve" smooth="yes"/>
      <point x="190" y="38"/>
      <point x="123" y="109"/>
      <point x="123" y="205" type="curve" smooth="yes"/>
      <point x="123" y="211" type="line"/>
      <point x="71" y="211" type="line"/>
      <point x="71" y="77"/>
      <point x="159" y="-10"/>
      <point x="286" y="-10" type="curve" smooth="yes"/>
      <point x="413" y="-10"/>
      <point x="505" y="77"/>
      <point x="505" y="211" type="curve" smooth="yes"/>
      <point x="505" y="475" type="line" smooth="yes"/>
      <point x="505" y="609"/>
      <point x="411" y="696"/>
      <point x="284" y="696" type="curve" smooth="yes"/>
      <point x="157" y="696"/>
      <point x="63" y="609"/>
      <point x="63" y="475" type="curve" smooth="yes"/>
      <point x="63" y="348"/>
      <point x="156" y="257"/>
      <point x="276" y="257" type="curve" smooth="yes"/>
      <point x="346" y="257"/>
      <point x="413" y="291"/>
      <point x="451" y="346" type="curve"/>
    </contour>
    <contour>
      <point x="451" y="472" type="line" smooth="yes"/>
      <point x="451" y="376"/>
      <point x="380" y="305"/>
      <point x="284" y="305" type="curve" smooth="yes"/>
      <point x="188" y="305"/>
      <point x="117" y="376"/>
      <point x="117" y="472" type="curve" smooth="yes"/>
      <point x="117" y="481" type="line" smooth="yes"/>
      <point x="117" y="577"/>
      <point x="188" y="648"/>
      <point x="284" y="648" type="curve" smooth="yes"/>
      <point x="380" y="648"/>
      <point x="451" y="577"/>
      <point x="451" y="481" type="curve" smooth="yes"/>
    </contour>
  </outline>
</glyph>
<glyph name="colon" format="1">
  <advance width="239"/>
  <unicode hex="003A"/>
  <outline>
    <contour>
      <point x="69" y="0" type="line"/>
      <point x="134" y="0" type="line"/>
      <point x="134" y="69" type="line"/>
      <point x="69" y="69" type="line"/>
    </contour>
    <contour>
      <point x="69" y="442" type="line"/>
      <point x="134" y="442" type="line"/>
      <point x="134" y="511" type="line"/>
      <point x="69" y="511" type="line"/>
    </contour>
  </outline>
</glyph>
<glyph name="D" format="1">
  <advance width="675"/>
  <unicode hex="0044"/>
  <outline>
    <contour>
      <point x="146" y="48" type="line"/>
      <point x="146" y="638" type="line"/>
      <point x="312" y="638" type="line" smooth="yes"/>
      <point x="429" y="638"/>
      <point x="524" y="577"/>
      <point x="524" y="365" type="curve" smooth="yes"/>
      <point x="524" y="322" type="line" smooth="yes"/>
      <point x="524" y="104"/>
      <point x="429" y="48"/>
      <point x="312" y="48" type="curve" smooth="yes"/>
    </contour>
    <contour>
      <point x="312" y="0" type="line" smooth="yes"/>
      <point x="459" y="0"/>
      <point x="578" y="74"/>
      <point x="578" y="331" type="curve" smooth="yes"/>
      <point x="578" y="356" type="line" smooth="yes"/>
      <point x="578" y="615"/>
      <point x="459" y="686"/>
      <point x="312" y="686" type="curve" smooth="yes"/>
      <point x="92" y="686" type="line"/>
      <point x="92" y="0" type="line"/>
    </contour>
    <contour>
      <point x="338" y="343" type="move" name="center"/>
    </contour>
    <contour>
      <point x="288" y="686" type="move" name="top"/>
    </contour>
  </outline>
</glyph>
<glyph name="F" format="1">
  <advance width="550"/>
  <unicode hex="0046"/>
  <outline>
    <contour>
      <point x="498" y="686" type="line"/>
      <point x="92" y="686" type="line"/>
      <point x="92" y="0" type="line"/>
      <point x="146" y="0" type="line"/>
      <point x="146" y="326" type="line"/>
      <point x="439" y="326" type="line"/>
      <point x="439" y="374" type="line"/>
      <point x="146" y="374" type="line"/>
      <point x="146" y="638" type="line"/>
      <point x="489" y="638" type="line"/>
    </contour>
  </outline>
</glyph>
<glyph name="G" format="1">
  <advance width="677"/>
  <unicode hex="0047"/>
  <outline>
    <contour>
      <point x="524" y="251" type="line" smooth="yes"/>
      <point x="524" y="79"/>
      <point x="425" y="38"/>
      <point x="320" y="38" type="curve" smooth="yes"/>
      <point x="203" y="38"/>
      <point x="116" y="91"/>
      <point x="116" y="318" type="curve" smooth="yes"/>
      <point x="116" y="368" type="line" smooth="yes"/>
      <point x="116" y="595"/>
      <point x="203" y="648"/>
      <point x="320" y="648" type="curve" smooth="yes"/>
      <point x="422" y="648"/>
      <point x="521" y="608"/>
      <point x="521" y="449" type="curve"/>
      <point x="574" y="449" type="line"/>
      <point x="574" y="645"/>
      <point x="449" y="696"/>
      <point x="320" y="696" type="curve" smooth="yes"/>
      <point x="173" y="696"/>
      <point x="62" y="631"/>
      <point x="62" y="356" type="curve" smooth="yes"/>
      <point x="62" y="330" type="line" smooth="yes"/>
      <point x="62" y="55"/>
      <point x="173" y="-10"/>
      <point x="320" y="-10" type="curve" smooth="yes"/>
      <point x="405" y="-10"/>
      <point x="485" y="18"/>
      <point x="527" y="92" type="curve"/>
      <point x="535" y="30"/>
      <point x="543" y="0"/>
      <point x="543" y="0" type="curve"/>
      <point x="580" y="0" type="line"/>
      <point x="580" y="0"/>
      <point x="574" y="48"/>
      <point x="574" y="119" type="curve" smooth="yes"/>
      <point x="574" y="350" type="line"/>
      <point x="292" y="350" type="line"/>
      <point x="292" y="303" type="line"/>
      <point x="524" y="303" type="line"/>
    </contour>
    <contour>
      <point x="339" y="686" type="move" name="top"/>
    </contour>
    <contour>
      <point x="339" y="0" type="move" name="bottom"/>
    </contour>
  </outline>
</glyph>
<glyph name="K" format="1">
  <advance width="623"/>
  <unicode hex="004B"/>
  <outline>
    <contour>
      <point x="92" y="0" type="line"/>
      <point x="146" y="0" type="line"/>
      <point x="146" y="208" type="line"/>
      <point x="269" y="346" type="line"/>
      <point x="513" y="0" type="line"/>
      <point x="581" y="0" type="line"/>
      <point x="306" y="387" type="line"/>
      <point x="573" y="686" type="line"/>
      <point x="509" y="686" type="line"/>
      <point x="146" y="279" type="line"/>
      <point x="146" y="686" type="line"/>
      <point x="92" y="686" type="line"/>
    </contour>
    <contour>
      <point x="312" y="686" type="move" name="top"/>
    </contour>
    <contour>
      <point x="312" y="0" type="move" name="bottom"/>
    </contour>
  </outline>
</glyph>
<glyph name="L" format="1">
  <advance width="536"/>
  <unicode hex="004C"/>
  <outline>
    <contour>
      <point x="498" y="0" type="line"/>
      <point x="486" y="48" type="line"/>
      <point x="146" y="48" type="line"/>
      <point x="146" y="686" type="line"/>
      <point x="92" y="686" type="line"/>
      <point x="92" y="0" type="line"/>
    </contour>
    <contour>
      <point x="119" y="686" type="move" name="top"/>
    </contour>
    <contour>
      <point x="268" y="0" type="move" name="bottom"/>
    </contour>
    <contour>
      <point x="516" y="686" type="move" name="topright"/>
    </contour>
  </outline>
</glyph>
<glyph name="N" format="1">
  <advance width="694"/>
  <unicode hex="004E"/>
  <outline>
    <contour>
      <point x="571" y="0" type="line"/>
      <point x="571" y="686" type="line"/>
      <point x="523" y="686" type="line"/>
      <point x="523" y="103" type="line"/>
      <point x="520" y="103" type="line"/>
      <point x="138" y="686" type="line"/>
      <point x="92" y="686" type="line"/>
      <point x="92" y="0" type="line"/>
      <point x="140" y="0" type="line"/>
      <point x="140" y="583" type="line"/>
      <point x="143" y="583" type="line"/>
      <point x="523" y="0" type="line"/>
    </contour>
    <contour>
      <point x="347" y="686" type="move" name="top"/>
    </contour>
    <contour>
      <point x="347" y="0" type="move" name="bottom"/>
    </contour>
  </outline>
</glyph>
<glyph name="Q" format="1">
  <advance width="690"/>
  <unicode hex="0051"/>
  <outline>
    <contour>
      <point x="593" y="356" type="line" smooth="yes"/>
      <point x="593" y="631"/>
      <point x="474" y="696"/>
      <point x="327" y="696" type="curve" smooth="yes"/>
      <point x="180" y="696"/>
      <point x="61" y="631"/>
      <point x="61" y="356" type="curve" smooth="yes"/>
      <point x="61" y="330" type="line" smooth="yes"/>
      <point x="61" y="68"/>
      <point x="168" y="-3"/>
      <point x="305" y="-9" type="curve"/>
      <point x="313" y="-66"/>
      <point x="345" y="-137"/>
      <point x="464" y="-137" type="curve" smooth="yes"/>
      <point x="527" y="-137"/>
      <point x="577" y="-110"/>
      <point x="577" y="-110" type="curve"/>
      <point x="577" y="-61" type="line"/>
      <point x="577" y="-62"/>
      <point x="510" y="-90"/>
      <point x="463" y="-90" type="curve" smooth="yes"/>
      <point x="388" y="-90"/>
      <point x="362" y="-46"/>
      <point x="355" y="-9" type="curve"/>
      <point x="489" y="0"/>
      <point x="593" y="73"/>
      <point x="593" y="330" type="curve" smooth="yes"/>
    </contour>
    <contour>
      <point x="210" y="38"/>
      <point x="115" y="91"/>
      <point x="115" y="318" type="curve" smooth="yes"/>
      <point x="115" y="368" type="line" smooth="yes"/>
      <point x="115" y="595"/>
      <point x="210" y="648"/>
      <point x="327" y="648" type="curve" smooth="yes"/>
      <point x="444" y="648"/>
      <point x="539" y="595"/>
      <point x="539" y="368" type="curve" smooth="yes"/>
      <point x="539" y="318" type="line" smooth="yes"/>
      <point x="539" y="91"/>
      <point x="444" y="38"/>
      <point x="327" y="38" type="curve" smooth="yes"/>
    </contour>
  </outline>
</glyph>
<glyph name="R" format="1">
  <advance width="670"/>
  <unicode hex="0052"/>
  <outline>
    <contour>
      <point x="599" y="20" type="line"/>
      <point x="574" y="32"/>
      <point x="548" y="30"/>
      <point x="548" y="153" type="curve" smooth="yes"/>
      <point x="548" y="332"/>
      <point x="438" y="349"/>
      <point x="438" y="349" type="curve"/>
      <point x="438" y="354" type="line"/>
      <point x="508" y="367"/>
      <point x="561" y="443"/>
      <point x="561" y="516" type="curve" smooth="yes"/>
      <point x="561" y="619"/>
      <point x="468" y="686"/>
      <point x="371" y="686" type="curve" smooth="yes"/>
      <point x="92" y="686" type="line"/>
      <point x="92" y="0" type="line"/>
      <point x="146" y="0" type="line"/>
      <point x="146" y="326" type="line"/>
      <point x="367" y="326" type="line" smooth="yes"/>
      <point x="399" y="326"/>
      <point x="496" y="313"/>
      <point x="496" y="127" type="curve" smooth="yes"/>
      <point x="496" y="15"/>
      <point x="543" y="-3"/>
      <point x="574" y="-3" type="curve" smooth="yes"/>
      <point x="588" y="-3"/>
      <point x="599" y="1"/>
      <point x="599" y="1" type="curve"/>
    </contour>
    <contour>
      <point x="146" y="374" type="line"/>
      <point x="146" y="638" type="line"/>
      <point x="146" y="638"/>
      <point x="372" y="638"/>
      <point x="374" y="638" type="curve" smooth="yes"/>
      <point x="448" y="638"/>
      <point x="508" y="581"/>
      <point x="508" y="507" type="curve" smooth="yes"/>
      <point x="508" y="433"/>
      <point x="448" y="374"/>
      <point x="374" y="374" type="curve" smooth="yes"/>
    </contour>
    <contour>
      <point x="305" y="686" type="move" name="top"/>
    </contour>
    <contour>
      <point x="335" y="0" type="move" name="bottom"/>
    </contour>
  </outline>
</glyph>
<glyph name="S" format="1">
  <advance width="627"/>
  <unicode hex="0053"/>
  <outline>
    <contour>
      <point x="523" y="503" type="line"/>
      <point x="523" y="516" type="line" smooth="yes"/>
      <point x="523" y="646"/>
      <point x="421" y="696"/>
      <point x="296" y="696" type="curve" smooth="yes"/>
      <point x="175" y="696"/>
      <point x="69" y="646"/>
      <point x="69" y="528" type="curve" smooth="yes"/>
      <point x="69" y="277"/>
      <point x="490" y="396"/>
      <point x="490" y="185" type="curve" smooth="yes"/>
      <point x="490" y="72"/>
      <point x="403" y="38"/>
      <point x="296" y="38" type="curve" smooth="yes"/>
      <point x="189" y="38"/>
      <point x="103" y="74"/>
      <point x="103" y="178" type="curve" smooth="yes"/>
      <point x="103" y="186"/>
      <point x="104" y="205"/>
      <point x="104" y="205" type="curve" smooth="yes"/>
      <point x="53" y="205" type="line" smooth="yes"/>
      <point x="53" y="205"/>
      <point x="52" y="193"/>
      <point x="52" y="187" type="curve" smooth="yes"/>
      <point x="52" y="39"/>
      <point x="164" y="-10"/>
      <point x="300" y="-10" type="curve" smooth="yes"/>
      <point x="432" y="-10"/>
      <point x="543" y="42"/>
      <point x="543" y="188" type="curve" smooth="yes"/>
      <point x="543" y="447"/>
      <point x="122" y="332"/>
      <point x="122" y="525" type="curve" smooth="yes"/>
      <point x="122" y="615"/>
      <point x="200" y="648"/>
      <point x="297" y="648" type="curve" smooth="yes"/>
      <point x="394" y="648"/>
      <point x="473" y="608"/>
      <point x="473" y="525" type="curve" smooth="yes"/>
      <point x="473" y="503" type="line"/>
    </contour>
    <contour>
      <point x="294" y="686" type="move" name="top"/>
    </contour>
    <contour>
      <point x="314" y="0" type="move" name="bottom"/>
    </contour>
  </outline>
</glyph>
<glyph name="backslash" format="1">
  <advance width="600"/>
  <unicode hex="005C"/>
  <outline>
    <contour>
      <point x="467" y="0" type="line"/>
      <point x="75" y="686" type="line"/>
      <point x="15" y="686" type="line"/>
      <point x="407" y="0" type="line"/>
    </contour>
  </outline>
</glyph>
<glyph name="grave" format="1">
  <advance width="333"/>
  <unicode hex="0060"/>
  <outline>
    <contour>
      <point x="229" y="575" type="line"/>
      <point x="133" y="720" type="line"/>
      <point x="68" y="720" type="line"/>
      <point x="68" y="717" type="line"/>
      <point x="179" y="575" type="line"/>
    </contour>
    <contour>
      <point x="199" y="511" type="move" name="_top"/>
    </contour>
  </outline>
</glyph>
<glyph name="c" format="1">
  <advance width="544"/>
  <unicode hex="0063"/>
  <outline>
    <contour>
      <point x="414" y="197" type="line"/>
      <point x="414" y="86"/>
      <point x="346" y="36"/>
      <point x="265" y="36" type="curve" smooth="yes"/>
      <point x="173" y="36"/>
      <point x="102" y="103"/>
      <point x="102" y="242" type="curve" smooth="yes"/>
      <point x="102" y="269" type="line" smooth="yes"/>
      <point x="102" y="408"/>
      <point x="172" y="475"/>
      <point x="264" y="475" type="curve" smooth="yes"/>
      <point x="346" y="475"/>
      <point x="414" y="423"/>
      <point x="414" y="314" type="curve"/>
      <point x="464" y="314" type="line"/>
      <point x="464" y="447"/>
      <point x="376" y="521"/>
      <point x="264" y="521" type="curve" smooth="yes"/>
      <point x="138" y="521"/>
      <point x="51" y="428"/>
      <point x="51" y="263" type="curve" smooth="yes"/>
      <point x="51" y="248" type="line" smooth="yes"/>
      <point x="51" y="83"/>
      <point x="139" y="-10"/>
      <point x="265" y="-10" type="curve" smooth="yes"/>
      <point x="377" y="-10"/>
      <point x="464" y="64"/>
      <point x="464" y="197" type="curve"/>
    </contour>
    <contour>
      <point x="262" y="511" type="move" name="top"/>
    </contour>
    <contour>
      <point x="272" y="0" type="move" name="bottom"/>
    </contour>
  </outline>
</glyph>
<glyph name="e" format="1">
  <advance width="556"/>
  <unicode hex="0065"/>
  <outline>
    <contour>
      <point x="414" y="189" type="line"/>
      <point x="414" y="84"/>
      <point x="344" y="36"/>
      <point x="265" y="36" type="curve" smooth="yes"/>
      <point x="173" y="36"/>
      <point x="102" y="103"/>
      <point x="102" y="242" type="curve" smooth="yes"/>
      <point x="102" y="250" type="line"/>
      <point x="464" y="250" type="line"/>
      <point x="464" y="314" type="line" smooth="yes"/>
      <point x="464" y="447"/>
      <point x="376" y="521"/>
      <point x="264" y="521" type="curve" smooth="yes"/>
      <point x="138" y="521"/>
      <point x="51" y="428"/>
      <point x="51" y="263" type="curve" smooth="yes"/>
      <point x="51" y="248" type="line" smooth="yes"/>
      <point x="51" y="83"/>
      <point x="139" y="-10"/>
      <point x="265" y="-10" type="curve" smooth="yes"/>
      <point x="375" y="-10"/>
      <point x="464" y="61"/>
      <point x="464" y="189" type="curve"/>
    </contour>
    <contour>
      <point x="346" y="475"/>
      <point x="414" y="423"/>
      <point x="414" y="314" type="curve" smooth="yes"/>
      <point x="414" y="296" type="line"/>
      <point x="103" y="296" type="line"/>
      <point x="111" y="416"/>
      <point x="178" y="475"/>
      <point x="264" y="475" type="curve" smooth="yes"/>
    </contour>
    <contour>
      <point x="340" y="10" type="move" name="ogonek"/>
    </contour>
    <contour>
      <point x="278" y="0" type="move" name="bottom"/>
    </contour>
    <contour>
      <point x="278" y="511" type="move" name="top"/>
    </contour>
  </outline>
</glyph>
<glyph name="g" format="1">
  <advance width="568"/>
  <unicode hex="0067"/>
  <outline>
    <contour>
      <point x="191" y="67" type="line" smooth="yes"/>
      <point x="149" y="67"/>
      <point x="116" y="91"/>
      <point x="116" y="133" type="curve" smooth="yes"/>
      <point x="116" y="175"/>
      <point x="149" y="200"/>
      <point x="191" y="200" type="curve" smooth="yes"/>
      <point x="273" y="200" type="line" smooth="yes"/>
      <point x="409" y="200"/>
      <point x="468" y="272"/>
      <point x="468" y="360" type="curve" smooth="yes"/>
      <point x="468" y="406"/>
      <point x="452" y="447"/>
      <point x="422" y="473" type="curve"/>
      <point x="423" y="477" type="line"/>
      <point x="484" y="486"/>
      <point x="522" y="547"/>
      <point x="522" y="603" type="curve"/>
      <point x="474" y="603" type="line"/>
      <point x="467" y="548"/>
      <point x="432" y="512"/>
      <point x="384" y="499" type="curve"/>
      <point x="355" y="513"/>
      <point x="318" y="521"/>
      <point x="273" y="521" type="curve" smooth="yes"/>
      <point x="137" y="521"/>
      <point x="78" y="449"/>
      <point x="78" y="360" type="curve" smooth="yes"/>
      <point x="78" y="310"/>
      <point x="105" y="266"/>
      <point x="146" y="236" type="curve"/>
      <point x="97" y="217"/>
      <point x="65" y="183"/>
      <point x="65" y="135" type="curve" smooth="yes"/>
      <point x="65" y="101"/>
      <point x="80" y="73"/>
      <point x="110" y="55" type="curve"/>
      <point x="64" y="36"/>
      <point x="36" y="-13"/>
      <point x="36" y="-61" type="curve" smooth="yes"/>
      <point x="36" y="-126"/>
      <point x="89" y="-188"/>
      <point x="162" y="-188" type="curve" smooth="yes"/>
      <point x="379" y="-188" type="line" smooth="yes"/>
      <point x="462" y="-188"/>
      <point x="522" y="-128"/>
      <point x="522" y="-52" type="curve" smooth="yes"/>
      <point x="522" y="15"/>
      <point x="474" y="67"/>
      <point x="404" y="67" type="curve" smooth="yes"/>
    </contour>
    <contour>
      <point x="417" y="297"/>
      <point x="366" y="245"/>
      <point x="273" y="245" type="curve" smooth="yes"/>
      <point x="180" y="245"/>
      <point x="129" y="297"/>
      <point x="129" y="360" type="curve" smooth="yes"/>
      <point x="129" y="423"/>
      <point x="180" y="475"/>
      <point x="273" y="475" type="curve" smooth="yes"/>
      <point x="366" y="475"/>
      <point x="417" y="423"/>
      <point x="417" y="360" type="curve" smooth="yes"/>
    </contour>
    <contour>
      <point x="166" y="-142" type="line" smooth="yes"/>
      <point x="122" y="-142"/>
      <point x="86" y="-106"/>
      <point x="86" y="-62" type="curve" smooth="yes"/>
      <point x="86" y="-18"/>
      <point x="122" y="18"/>
      <point x="166" y="18" type="curve" smooth="yes"/>
      <point x="400" y="18" type="line" smooth="yes"/>
      <point x="439" y="18"/>
      <point x="471" y="-16"/>
      <point x="471" y="-55" type="curve" smooth="yes"/>
      <point x="471" y="-103"/>
      <point x="430" y="-142"/>
      <point x="382" y="-142" type="curve" smooth="yes"/>
    </contour>
    <contour>
      <point x="284" y="511" type="move" name="top"/>
    </contour>
  </outline>
</glyph>
<glyph name="h" format="1">
  <advance width="593"/>
  <unicode hex="0068"/>
  <outline>
    <contour>
      <point x="486" y="0" type="line"/>
      <point x="486" y="329" type="line" smooth="yes"/>
      <point x="486" y="462"/>
      <point x="402" y="521"/>
      <point x="296" y="521" type="curve" smooth="yes"/>
      <point x="237" y="521"/>
      <point x="169" y="493"/>
      <point x="134" y="439" type="curve"/>
      <point x="134" y="720" type="line"/>
      <point x="83" y="720" type="line"/>
      <point x="83" y="0" type="line"/>
      <point x="134" y="0" type="line"/>
      <point x="134" y="314" type="line" smooth="yes"/>
      <point x="134" y="406"/>
      <point x="201" y="475"/>
      <point x="291" y="475" type="curve" smooth="yes"/>
      <point x="381" y="475"/>
      <point x="435" y="425"/>
      <point x="435" y="314" type="curve" smooth="yes"/>
      <point x="435" y="0" type="line"/>
    </contour>
    <contour>
      <point x="297" y="256" type="move" name="center"/>
    </contour>
    <contour>
      <point x="109" y="686" type="move" name="top"/>
    </contour>
  </outline>
</glyph>
<glyph name="i" format="1">
  <advance width="260"/>
  <unicode hex="0069"/>
  <outline>
    <contour>
      <point x="136" y="0" type="line"/>
      <point x="136" y="511" type="line"/>
      <point x="85" y="511" type="line"/>
      <point x="85" y="0" type="line"/>
    </contour>
    <contour>
      <point x="81" y="666" type="line"/>
      <point x="140" y="666" type="line"/>
      <point x="140" y="720" type="line"/>
      <point x="81" y="720" type="line"/>
    </contour>
  </outline>
</glyph>
<glyph name="n" format="1">
  <advance width="593"/>
  <unicode hex="006E"/>
  <outline>
    <contour>
      <point x="485" y="0" type="line"/>
      <point x="485" y="329" type="line" smooth="yes"/>
      <point x="485" y="462"/>
      <point x="402" y="521"/>
      <point x="296" y="521" type="curve" smooth="yes"/>
      <point x="229" y="521"/>
      <point x="163" y="489"/>
      <point x="128" y="435" type="curve"/>
      <point x="117" y="511" type="line"/>
      <point x="83" y="511" type="line"/>
      <point x="83" y="0" type="line"/>
      <point x="134" y="0" type="line"/>
      <point x="134" y="314" type="line" smooth="yes"/>
      <point x="134" y="406"/>
      <point x="201" y="475"/>
      <point x="291" y="475" type="curve" smooth="yes"/>
      <point x="381" y="475"/>
      <point x="435" y="425"/>
      <point x="435" y="314" type="curve" smooth="yes"/>
      <point x="435" y="0" type="line"/>
    </contour>
    <contour>
      <point x="297" y="511" type="move" name="top"/>
    </contour>
    <contour>
      <point x="297" y="0" type="move" name="bottom"/>
    </contour>
  </outline>
</glyph>
<glyph name="q" format="1">
  <advance width="583"/>
  <unicode hex="0071"/>
  <outline>
    <contour>
      <point x="418" y="-180" type="line"/>
      <point x="469" y="-180" type="line"/>
      <point x="469" y="511" type="line"/>
      <point x="448" y="511" type="line"/>
      <point x="429" y="426" type="line"/>
      <point x="391" y="490"/>
      <point x="333" y="521"/>
      <point x="255" y="521" type="curve" smooth="yes"/>
      <point x="143" y="521"/>
      <point x="52" y="441"/>
      <point x="52" y="251" type="curve" smooth="yes"/>
      <point x="52" y="240" type="line" smooth="yes"/>
      <point x="52" y="78"/>
      <point x="143" y="-10"/>
      <point x="255" y="-10" type="curve" smooth="yes"/>
      <point x="327" y="-10"/>
      <point x="385" y="21"/>
      <point x="418" y="71" type="curve"/>
    </contour>
    <contour>
      <point x="419" y="242" type="line" smooth="yes"/>
      <point x="419" y="98"/>
      <point x="347" y="36"/>
      <point x="260" y="36" type="curve" smooth="yes"/>
      <point x="173" y="36"/>
      <point x="103" y="99"/>
      <point x="103" y="242" type="curve" smooth="yes"/>
      <point x="103" y="253" type="line" smooth="yes"/>
      <point x="103" y="419"/>
      <point x="173" y="475"/>
      <point x="260" y="475" type="curve" smooth="yes"/>
      <point x="346" y="475"/>
      <point x="419" y="423"/>
      <point x="419" y="254" type="curve" smooth="yes"/>
    </contour>
  </outline>
</glyph>
<glyph name="r" format="1">
  <advance width="490"/>
  <unicode hex="0072"/>
  <outline>
    <contour>
      <point x="435" y="328" type="line"/>
      <point x="435" y="328"/>
      <point x="437" y="338"/>
      <point x="437" y="352" type="curve" smooth="yes"/>
      <point x="437" y="442"/>
      <point x="384" y="521"/>
      <point x="273" y="521" type="curve" smooth="yes"/>
      <point x="162" y="521"/>
      <point x="128" y="435"/>
      <point x="128" y="435" type="curve"/>
      <point x="117" y="511" type="line"/>
      <point x="83" y="511" type="line"/>
      <point x="83" y="0" type="line"/>
      <point x="134" y="0" type="line"/>
      <point x="134" y="324" type="line" smooth="yes"/>
      <point x="134" y="379"/>
      <point x="164" y="475"/>
      <point x="263" y="475" type="curve" smooth="yes"/>
      <point x="362" y="475"/>
      <point x="388" y="397"/>
      <point x="388" y="344" type="curve" smooth="yes"/>
      <point x="388" y="328" type="line"/>
    </contour>
    <contour>
      <point x="109" y="511" type="move" name="top"/>
    </contour>
    <contour>
      <point x="109" y="0" type="move" name="bottom"/>
    </contour>
  </outline>
</glyph>
<glyph name="v" format="1">
  <advance width="512"/>
  <unicode hex="0076"/>
  <outline>
    <contour>
      <point x="470" y="511" type="line"/>
      <point x="420" y="511" type="line"/>
      <point x="244" y="74" type="line"/>
      <point x="242" y="74" type="line"/>
      <point x="67" y="511" type="line"/>
      <point x="12" y="511" type="line"/>
      <point x="218" y="0" type="line"/>
      <point x="263" y="0" type="line"/>
    </contour>
  </outline>
</glyph>
<glyph name="w" format="1">
  <advance width="811"/>
  <unicode hex="0077"/>
  <outline>
    <contour>
      <point x="392" y="446" type="line"/>
      <point x="394" y="446" type="line"/>
      <point x="549" y="0" type="line"/>
      <point x="589" y="0" type="line"/>
      <point x="767" y="511" type="line"/>
      <point x="718" y="511" type="line"/>
      <point x="573" y="93" type="line"/>
      <point x="570" y="93" type="line"/>
      <point x="425" y="511" type="line"/>
      <point x="366" y="511" type="line"/>
      <point x="221" y="93" type="line"/>
      <point x="218" y="93" type="line"/>
      <point x="73" y="511" type="line"/>
      <point x="20" y="511" type="line"/>
      <point x="197" y="0" type="line"/>
      <point x="237" y="0" type="line"/>
    </contour>
    <contour>
      <point x="396" y="511" type="move" name="top"/>
    </contour>
  </outline>
</glyph>
<glyph name="y" format="1">
  <advance width="512"/>
  <unicode hex="0079"/>
  <outline>
    <contour>
      <point x="470" y="511" type="line"/>
      <point x="420" y="511" type="line"/>
      <point x="245" y="76" type="line"/>
      <point x="241" y="76" type="line"/>
      <point x="67" y="511" type="line"/>
      <point x="12" y="511" type="line"/>
      <point x="215" y="8" type="line"/>
      <point x="195" y="-41" type="line" smooth="yes"/>
      <point x="179" y="-81"/>
      <point x="158" y="-140"/>
      <point x="101" y="-140" type="curve" smooth="yes"/>
      <point x="83" y="-140"/>
      <point x="61" y="-132"/>
      <point x="47" y="-126" type="curve"/>
      <point x="47" y="-172" type="line"/>
      <point x="69" y="-182"/>
      <point x="88" y="-186"/>
      <point x="110" y="-186" type="curve" smooth="yes"/>
      <point x="201" y="-186"/>
      <point x="225" y="-94"/>
      <point x="268" y="13" type="curve" smooth="yes"/>
    </contour>
    <contour>
      <point x="244" y="511" type="move" name="top"/>
    </contour>
  </outline>
</glyph>
<glyph name="z" format="1">
  <advance width="463"/>
  <unicode hex="007A"/>
  <outline>
    <contour>
      <point x="396" y="0" type="line"/>
      <point x="396" y="46" type="line"/>
      <point x="110" y="46" type="line"/>
      <point x="388" y="487" type="line"/>
      <point x="388" y="511" type="line"/>
      <point x="53" y="511" type="line"/>
      <point x="53" y="465" type="line"/>
      <point x="313" y="465" type="line"/>
      <point x="36" y="24" type="line"/>
      <point x="36" y="0" type="line"/>
    </contour>
    <contour>
      <point x="212" y="511" type="move" name="top"/>
    </contour>
  </outline>
</glyph>
<glyph name="bar" format="1">
  <advance width="248"/>
  <unicode hex="007C"/>
  <outline>
    <contour>
      <point x="136" y="-199" type="line"/>
      <point x="136" y="720" type="line"/>
      <point x="84" y="720" type="line"/>
      <point x="84" y="-199" type="line"/>
    </contour>
  </outline>
</glyph>
<glyph name="exclamdown" format="1">
  <advance width="254"/>
  <unicode hex="00A1"/>
  <outline>
    <contour>
      <point x="70" y="441" type="line"/>
      <point x="135" y="441" type="line"/>
      <point x="135" y="510" type="line"/>
      <point x="70" y="510" type="line"/>
    </contour>
    <contour>
      <point x="69" y="-176" type="line"/>
      <point x="135" y="-176" type="line"/>
      <point x="124" y="369" type="line"/>
      <point x="82" y="369" type="line"/>
    </contour>
  </outline>
</glyph>
<glyph name="dieresis" format="1">
  <advance width="440"/>
  <unicode hex="00A8"/>
  <outline>
    <contour>
      <point x="81" y="651" type="line"/>
      <point x="146" y="651" type="line"/>
      <point x="146" y="720" type="line"/>
      <point x="81" y="720" type="line"/>
    </contour>
    <contour>
      <point x="257" y="651" type="line"/>
      <point x="322" y="651" type="line"/>
      <point x="322" y="720" type="line"/>
      <point x="257" y="720" type="line"/>
    </contour>
    <contour>
      <point x="202" y="511" type="move" name="_top"/>
    </contour>
  </outline>
</glyph>
<glyph name="ordfeminine" format="1">
  <advance width="415"/>
  <unicode hex="00AA"/>
  <outline>
    <contour>
      <point x="261" y="512" type="line" smooth="yes"/>
      <point x="261" y="441"/>
      <point x="210" y="410"/>
      <point x="161" y="410" type="curve" smooth="yes"/>
      <point x="115" y="410"/>
      <point x="95" y="426"/>
      <point x="95" y="462" type="curve" smooth="yes"/>
      <point x="95" y="522"/>
      <point x="160" y="527"/>
      <point x="261" y="527" type="curve"/>
    </contour>
    <contour>
      <point x="301" y="603" type="line" smooth="yes"/>
      <point x="301" y="667"/>
      <point x="264" y="697"/>
      <point x="187" y="697" type="curve" smooth="yes"/>
      <point x="119" y="697"/>
      <point x="66" y="666"/>
      <point x="66" y="609" type="curve" smooth="yes"/>
      <point x="66" y="607"/>
      <point x="66" y="598"/>
      <point x="68" y="594" type="curve"/>
      <point x="106" y="594" type="line"/>
      <point x="106" y="603" type="line" smooth="yes"/>
      <point x="106" y="644"/>
      <point x="141" y="660"/>
      <point x="187" y="660" type="curve" smooth="yes"/>
      <point x="239" y="660"/>
      <point x="261" y="644"/>
      <point x="261" y="597" type="curve" smooth="yes"/>
      <point x="261" y="564" type="line"/>
      <point x="142" y="564"/>
      <point x="55" y="554"/>
      <point x="55" y="463" type="curve" smooth="yes"/>
      <point x="55" y="391"/>
      <point x="104" y="373"/>
      <point x="155" y="373" type="curve" smooth="yes"/>
      <point x="201" y="373"/>
      <point x="235" y="388"/>
      <point x="261" y="421" type="curve"/>
      <point x="264" y="392"/>
      <point x="275" y="373"/>
      <point x="304" y="373" type="curve" smooth="yes"/>
      <point x="320" y="373"/>
      <point x="335" y="378"/>
      <point x="347" y="387" type="curve"/>
      <point x="347" y="424" type="line"/>
      <point x="334" y="416"/>
      <point x="320" y="410"/>
      <point x="312" y="410" type="curve" smooth="yes"/>
      <point x="306" y="410"/>
      <point x="301" y="414"/>
      <point x="301" y="425" type="curve" smooth="yes"/>
    </contour>
  </outline>
</glyph>
<glyph name="registered" format="1">
  <advance width="780"/>
  <unicode hex="00AE"/>
  <outline>
    <contour>
      <point x="562" y="151" type="line"/>
      <point x="531" y="163"/>
      <point x="531" y="185"/>
      <point x="531" y="229" type="curve" smooth="yes"/>
      <point x="531" y="311"/>
      <point x="494" y="335"/>
      <point x="475" y="343" type="curve"/>
      <point x="475" y="347" type="line"/>
      <point x="506" y="360"/>
      <point x="538" y="395"/>
      <point x="538" y="443" type="curve" smooth="yes"/>
      <point x="538" y="506"/>
      <point x="483" y="547"/>
      <point x="423" y="547" type="curve" smooth="yes"/>
      <point x="254" y="547" type="line"/>
      <point x="254" y="135" type="line"/>
      <point x="295" y="135" type="line"/>
      <point x="295" y="328" type="line"/>
      <point x="420" y="328" type="line" smooth="yes"/>
      <point x="439" y="328"/>
      <point x="493" y="320"/>
      <point x="493" y="215" type="curve" smooth="yes"/>
      <point x="493" y="145"/>
      <point x="522" y="134"/>
      <point x="543" y="134" type="curve" smooth="yes"/>
      <point x="551" y="134"/>
      <point x="562" y="137"/>
      <point x="562" y="137" type="curve"/>
    </contour>
    <contour>
      <point x="295" y="363" type="line"/>
      <point x="295" y="511" type="line"/>
      <point x="425" y="511" type="line" smooth="yes"/>
      <point x="467" y="511"/>
      <point x="501" y="480"/>
      <point x="501" y="438" type="curve" smooth="yes"/>
      <point x="501" y="397"/>
      <point x="467" y="363"/>
      <point x="425" y="363" type="curve" smooth="yes"/>
    </contour>
    <contour>
      <point x="744" y="539"/>
      <point x="585" y="696"/>
      <point x="390" y="696" type="curve" smooth="yes"/>
      <point x="194" y="696"/>
      <point x="36" y="539"/>
      <point x="36" y="344" type="curve" smooth="yes"/>
      <point x="36" y="147"/>
      <point x="194" y="-10"/>
      <point x="390" y="-10" type="curve" smooth="yes"/>
      <point x="585" y="-10"/>
      <point x="744" y="147"/>
      <point x="744" y="344" type="curve" smooth="yes"/>
    </contour>
    <contour>
      <point x="718" y="162"/>
      <point x="570" y="16"/>
      <point x="390" y="16" type="curve" smooth="yes"/>
      <point x="209" y="16"/>
      <point x="62" y="162"/>
      <point x="62" y="344" type="curve" smooth="yes"/>
      <point x="62" y="524"/>
      <point x="209" y="670"/>
      <point x="390" y="670" type="curve" smooth="yes"/>
      <point x="570" y="670"/>
      <point x="718" y="524"/>
      <point x="718" y="344" type="curve" smooth="yes"/>
    </contour>
  </outline>
</glyph>
<glyph name="degree" format="1">
  <advance width="394"/>
  <unicode hex="00B0"/>
  <outline>
    <contour>
      <point x="347" y="628"/>
      <point x="279" y="696"/>
      <point x="197" y="696" type="curve" smooth="yes"/>
      <point x="114" y="696"/>
      <point x="47" y="628"/>
      <point x="47" y="546" type="curve" smooth="yes"/>
      <point x="48" y="463"/>
      <point x="114" y="396"/>
      <point x="197" y="396" type="curve" smooth="yes"/>
      <point x="279" y="396"/>
      <point x="347" y="463"/>
      <point x="347" y="546" type="curve" smooth="yes"/>
    </contour>
    <contour>
      <point x="91" y="604"/>
      <point x="138" y="651"/>
      <point x="197" y="651" type="curve" smooth="yes"/>
      <point x="256" y="651"/>
      <point x="303" y="604"/>
      <point x="303" y="545" type="curve" smooth="yes"/>
      <point x="303" y="486"/>
      <point x="256" y="439"/>
      <point x="197" y="439" type="curve" smooth="yes"/>
      <point x="138" y="439"/>
      <point x="91" y="486"/>
      <point x="91" y="545" type="curve" smooth="yes"/>
    </contour>
  </outline>
</glyph>
<glyph name="acute" format="1">
  <advance width="333"/>
  <unicode hex="00B4"/>
  <outline>
    <contour>
      <point x="118" y="575" type="line"/>
      <point x="229" y="717" type="line"/>
      <point x="229" y="720" type="line"/>
      <point x="164" y="720" type="line"/>
      <point x="68" y="575" type="line"/>
    </contour>
    <contour>
      <point x="99" y="511" type="move" name="_top"/>
    </contour>
  </outline>
</glyph>
<glyph name="ordmasculine" format="1">
  <advance width="392"/>
  <unicode hex="00BA"/>
  <outline>
    <contour>
      <point x="262" y="377"/>
      <point x="317" y="433"/>
      <point x="317" y="533" type="curve" smooth="yes"/>
      <point x="317" y="542" type="line" smooth="yes"/>
      <point x="317" y="642"/>
      <point x="262" y="698"/>
      <point x="184" y="698" type="curve" smooth="yes"/>
      <point x="108" y="698"/>
      <point x="53" y="642"/>
      <point x="53" y="542" type="curve" smooth="yes"/>
      <point x="53" y="533" type="line" smooth="yes"/>
      <point x="53" y="433"/>
      <point x="108" y="377"/>
      <point x="184" y="377" type="curve" smooth="yes"/>
    </contour>
    <contour>
      <point x="133" y="413"/>
      <point x="93" y="450"/>
      <point x="93" y="530" type="curve" smooth="yes"/>
      <point x="93" y="545" type="line" smooth="yes"/>
      <point x="93" y="624"/>
      <point x="133" y="661"/>
      <point x="184" y="661" type="curve" smooth="yes"/>
      <point x="236" y="661"/>
      <point x="276" y="624"/>
      <point x="276" y="545" type="curve" smooth="yes"/>
      <point x="276" y="530" type="line" smooth="yes"/>
      <point x="276" y="450"/>
      <point x="236" y="413"/>
      <point x="184" y="413" type="curve" smooth="yes"/>
    </contour>
  </outline>
</glyph>
<glyph name="guillemotright" format="1">
  <advance width="460"/>
  <unicode hex="00BB"/>
  <outline>
    <contour>
      <point x="97" y="163" type="line"/>
      <point x="221" y="337" type="line"/>
      <point x="97" y="511" type="line"/>
      <point x="56" y="511" type="line"/>
      <point x="153" y="337" type="line"/>
      <point x="56" y="163" type="line"/>
    </contour>
    <contour>
      <point x="280" y="163" type="line"/>
      <point x="403" y="337" type="line"/>
      <point x="280" y="511" type="line"/>
      <point x="239" y="511" type="line"/>
      <point x="336" y="337" type="line"/>
      <point x="239" y="163" type="line"/>
    </contour>
  </outline>
</glyph>
<glyph name="onequarter" format="1">
  <advance width="702"/>
  <unicode hex="00BC"/>
  <outline>
    <contour>
      <point x="257" y="311" type="line"/>
      <point x="257" y="349" type="line"/>
      <point x="180" y="349" type="line"/>
      <point x="180" y="686" type="line"/>
      <point x="158" y="686" type="line"/>
      <point x="105" y="669"/>
      <point x="78" y="665"/>
      <point x="36" y="663" type="curve"/>
      <point x="36" y="634" type="line"/>
      <point x="138" y="634" type="line"/>
      <point x="138" y="349" type="line"/>
      <point x="36" y="349" type="line"/>
      <point x="36" y="311" type="line"/>
    </contour>
    <contour>
      <point x="591" y="686" type="line"/>
      <point x="547" y="686" type="line"/>
      <point x="127" y="0" type="line"/>
      <point x="174" y="0" type="line"/>
    </contour>
    <contour>
      <point x="608" y="135" type="line"/>
      <point x="476" y="135" type="line"/>
      <point x="510" y="181"/>
      <point x="566" y="290"/>
      <point x="595" y="375" type="curve"/>
      <point x="552" y="375" type="line"/>
      <point x="520" y="287"/>
      <point x="448" y="157"/>
      <point x="427" y="132" type="curve"/>
      <point x="427" y="98" type="line"/>
      <point x="608" y="98" type="line"/>
      <point x="608" y="0" type="line"/>
      <point x="649" y="0" type="line"/>
      <point x="649" y="98" type="line"/>
      <point x="692" y="98" type="line"/>
      <point x="692" y="135" type="line"/>
      <point x="649" y="135" type="line"/>
      <point x="649" y="311" type="line"/>
      <point x="629" y="311" type="line"/>
      <point x="623" y="295"/>
      <point x="615" y="279"/>
      <point x="608" y="265" type="curve"/>
    </contour>
  </outline>
</glyph>
<glyph name="questiondown" format="1">
  <advance width="495"/>
  <unicode hex="00BF"/>
  <outline>
    <contour>
      <point x="253" y="511" type="line"/>
      <point x="188" y="511" type="line"/>
      <point x="188" y="442" type="line"/>
      <point x="253" y="442" type="line"/>
    </contour>
    <contour>
      <point x="193" y="280" type="line" smooth="yes"/>
      <point x="193" y="164"/>
      <point x="35" y="174"/>
      <point x="35" y="-4" type="curve" smooth="yes"/>
      <point x="35" y="-20"/>
      <point x="39" y="-186"/>
      <point x="228" y="-186" type="curve" smooth="yes"/>
      <point x="417" y="-186"/>
      <point x="433" y="-18"/>
      <point x="433" y="13" type="curve" smooth="yes"/>
      <point x="433" y="37"/>
      <point x="430" y="46"/>
      <point x="430" y="46" type="curve" smooth="yes"/>
      <point x="376" y="46" type="line" smooth="yes"/>
      <point x="376" y="46"/>
      <point x="379" y="27"/>
      <point x="379" y="17" type="curve" smooth="yes"/>
      <point x="379" y="-18"/>
      <point x="366" y="-137"/>
      <point x="227" y="-137" type="curve" smooth="yes"/>
      <point x="107" y="-137"/>
      <point x="89" y="-43"/>
      <point x="89" y="-2" type="curve" smooth="yes"/>
      <point x="89" y="145"/>
      <point x="247" y="145"/>
      <point x="247" y="267" type="curve" smooth="yes"/>
      <point x="247" y="345" type="line"/>
      <point x="193" y="345" type="line"/>
    </contour>
  </outline>
</glyph>
<glyph name="Acircumflex" format="1">
  <advance width="652"/>
  <unicode hex="00C2"/>
  <outline>
    <contour>
      <point x="563" y="0" type="line"/>
      <point x="622" y="0" type="line"/>
      <point x="338" y="686" type="line"/>
      <point x="288" y="686" type="line"/>
      <point x="4" y="0" type="line"/>
      <point x="60" y="0" type="line"/>
      <point x="130" y="170" type="line"/>
      <point x="492" y="170" type="line"/>
    </contour>
    <contour>
      <point x="309" y="612" type="line"/>
      <point x="313" y="612" type="line"/>
      <point x="472" y="219" type="line"/>
      <point x="150" y="219" type="line"/>
    </contour>
    <contour>
      <point x="151" y="750" type="line"/>
      <point x="211" y="750" type="line"/>
      <point x="314" y="847" type="line"/>
      <point x="417" y="750" type="line"/>
      <point x="477" y="750" type="line"/>
      <point x="343" y="895" type="line"/>
      <point x="285" y="895" type="line"/>
    </contour>
  </outline>
</glyph>
<glyph name="Ecircumflex" format="1">
  <advance width="593"/>
  <unicode hex="00CA"/>
  <outline>
    <contour>
      <point x="526" y="0" type="line"/>
      <point x="515" y="48" type="line"/>
      <point x="146" y="48" type="line"/>
      <point x="146" y="326" type="line"/>
      <point x="465" y="326" type="line"/>
      <point x="465" y="374" type="line"/>
      <point x="146" y="374" type="line"/>
      <point x="146" y="638" type="line"/>
      <point x="506" y="638" type="line"/>
      <point x="516" y="686" type="line"/>
      <point x="92" y="686" type="line"/>
      <point x="92" y="0" type="line"/>
    </contour>
    <contour>
      <point x="144" y="750" type="line"/>
      <point x="204" y="750" type="line"/>
      <point x="307" y="847" type="line"/>
      <point x="410" y="750" type="line"/>
      <point x="470" y="750" type="line"/>
      <point x="336" y="895" type="line"/>
      <point x="278" y="895" type="line"/>
    </contour>
  </outline>
</glyph>
<glyph name="Edieresis" format="1">
  <advance width="593"/>
  <unicode hex="00CB"/>
  <outline>
    <contour>
      <point x="526" y="0" type="line"/>
      <point x="515" y="48" type="line"/>
      <point x="146" y="48" type="line"/>
      <point x="146" y="326" type="line"/>
      <point x="465" y="326" type="line"/>
      <point x="465" y="374" type="line"/>
      <point x="146" y="374" type="line"/>
      <point x="146" y="638" type="line"/>
      <point x="506" y="638" type="line"/>
      <point x="516" y="686" type="line"/>
      <point x="92" y="686" type="line"/>
      <point x="92" y="0" type="line"/>
    </contour>
    <contour>
      <point x="182" y="750" type="line"/>
      <point x="247" y="750" type="line"/>
      <point x="247" y="819" type="line"/>
      <point x="182" y="819" type="line"/>
    </contour>
    <contour>
      <point x="358" y="750" type="line"/>
      <point x="423" y="750" type="line"/>
      <point x="423" y="819" type="line"/>
      <point x="358" y="819" type="line"/>
    </contour>
  </outline>
</glyph>
<glyph name="Eth" format="1">
  <advance width="681"/>
  <unicode hex="00D0"/>
  <outline>
    <contour>
      <point x="5" y="319" type="line"/>
      <point x="105" y="319" type="line"/>
      <point x="105" y="0" type="line"/>
      <point x="325" y="0" type="line" smooth="yes"/>
      <point x="472" y="0"/>
      <point x="591" y="74"/>
      <point x="591" y="331" type="curve" smooth="yes"/>
      <point x="591" y="356" type="line" smooth="yes"/>
      <point x="591" y="615"/>
      <point x="472" y="686"/>
      <point x="325" y="686" type="curve" smooth="yes"/>
      <point x="105" y="686" type="line"/>
      <point x="105" y="367" type="line"/>
      <point x="5" y="367" type="line"/>
    </contour>
    <contour>
      <point x="159" y="48" type="line"/>
      <point x="159" y="319" type="line"/>
      <point x="331" y="319" type="line"/>
      <point x="331" y="367" type="line"/>
      <point x="159" y="367" type="line"/>
      <point x="159" y="638" type="line"/>
      <point x="325" y="638" type="line" smooth="yes"/>
      <point x="442" y="638"/>
      <point x="537" y="577"/>
      <point x="537" y="365" type="curve" smooth="yes"/>
      <point x="537" y="322" type="line" smooth="yes"/>
      <point x="537" y="104"/>
      <point x="442" y="48"/>
      <point x="325" y="48" type="curve" smooth="yes"/>
    </contour>
  </outline>
</glyph>
<glyph name="Ntilde" format="1">
  <advance width="694"/>
  <unicode hex="00D1"/>
  <outline>
    <contour>
      <point x="571" y="0" type="line"/>
      <point x="571" y="686" type="line"/>
      <point x="523" y="686" type="line"/>
      <point x="523" y="103" type="line"/>
      <point x="520" y="103" type="line"/>
      <point x="138" y="686" type="line"/>
      <point x="92" y="686" type="line"/>
      <point x="92" y="0" type="line"/>
      <point x="140" y="0" type="line"/>
      <point x="140" y="583" type="line"/>
      <point x="143" y="583" type="line"/>
      <point x="523" y="0" type="line"/>
    </contour>
    <contour>
      <point x="484" y="832" type="line"/>
      <point x="477" y="809"/>
      <point x="460" y="800"/>
      <point x="427" y="800" type="curve" smooth="yes"/>
      <point x="373" y="800"/>
      <point x="324" y="832"/>
      <point x="260" y="832" type="curve" smooth="yes"/>
      <point x="182" y="832"/>
      <point x="159" y="782"/>
      <point x="159" y="750" type="curve"/>
      <point x="196" y="750" type="line"/>
      <point x="203" y="773"/>
      <point x="220" y="782"/>
      <point x="253" y="782" type="curve" smooth="yes"/>
      <point x="307" y="782"/>
      <point x="356" y="750"/>
      <point x="420" y="750" type="curve" smooth="yes"/>
      <point x="499" y="750"/>
      <point x="521" y="800"/>
      <point x="521" y="832" type="curve"/>
    </contour>
  </outline>
</glyph>
<glyph name="Yacute" format="1">
  <advance width="572"/>
  <unicode hex="00DD"/>
  <outline>
    <contour>
      <point x="541" y="686" type="line"/>
      <point x="486" y="686" type="line"/>
      <point x="272" y="321" type="line"/>
      <point x="269" y="321" type="line"/>
      <point x="58" y="686" type="line"/>
      <point x="-5" y="686" type="line"/>
      <point x="241" y="266" type="line"/>
      <point x="241" y="0" type="line"/>
      <point x="295" y="0" type="line"/>
      <point x="295" y="266" type="line"/>
    </contour>
    <contour>
      <point x="305" y="750" type="line"/>
      <point x="416" y="892" type="line"/>
      <point x="416" y="895" type="line"/>
      <point x="351" y="895" type="line"/>
      <point x="255" y="750" type="line"/>
    </contour>
  </outline>
</glyph>
<glyph name="Thorn" format="1">
  <advance width="633"/>
  <unicode hex="00DE"/>
  <outline>
    <contour>
      <point x="146" y="0" type="line"/>
      <point x="146" y="177" type="line"/>
      <point x="373" y="177" type="line" smooth="yes"/>
      <point x="476" y="177"/>
      <point x="560" y="261"/>
      <point x="560" y="364" type="curve" smooth="yes"/>
      <point x="560" y="467"/>
      <point x="476" y="551"/>
      <point x="373" y="551" type="curve" smooth="yes"/>
      <point x="146" y="551" type="line"/>
      <point x="146" y="686" type="line"/>
      <point x="92" y="686" type="line"/>
      <point x="92" y="0" type="line"/>
    </contour>
    <contour>
      <point x="146" y="224" type="line"/>
      <point x="146" y="503" type="line"/>
      <point x="366" y="503" type="line" smooth="yes"/>
      <point x="444" y="503"/>
      <point x="508" y="442"/>
      <point x="508" y="364" type="curve" smooth="yes"/>
      <point x="508" y="286"/>
      <point x="444" y="224"/>
      <point x="366" y="224" type="curve" smooth="yes"/>
    </contour>
  </outline>
</glyph>
<glyph name="ccedilla" format="1">
  <advance width="544"/>
  <unicode hex="00E7"/>
  <outline>
    <contour>
      <point x="414" y="197" type="line"/>
      <point x="414" y="86"/>
      <point x="346" y="36"/>
      <point x="265" y="36" type="curve" smooth="yes"/>
      <point x="173" y="36"/>
      <point x="102" y="103"/>
      <point x="102" y="242" type="curve" smooth="yes"/>
      <point x="102" y="269" type="line" smooth="yes"/>
      <point x="102" y="408"/>
      <point x="172" y="475"/>
      <point x="264" y="475" type="curve" smooth="yes"/>
      <point x="346" y="475"/>
      <point x="414" y="423"/>
      <point x="414" y="314" type="curve"/>
      <point x="464" y="314" type="line"/>
      <point x="464" y="447"/>
      <point x="376" y="521"/>
      <point x="264" y="521" type="curve" smooth="yes"/>
      <point x="138" y="521"/>
      <point x="51" y="428"/>
      <point x="51" y="263" type="curve" smooth="yes"/>
      <point x="51" y="248" type="line" smooth="yes"/>
      <point x="51" y="83"/>
      <point x="139" y="-10"/>
      <point x="265" y="-10" type="curve" smooth="yes"/>
      <point x="377" y="-10"/>
      <point x="464" y="64"/>
      <point x="464" y="197" type="curve"/>
    </contour>
    <contour>
      <point x="166" y="-184" type="line"/>
      <point x="190" y="-193"/>
      <point x="219" y="-197"/>
      <point x="244" y="-197" type="curve" smooth="yes"/>
      <point x="290" y="-197"/>
      <point x="362" y="-179"/>
      <point x="362" y="-106" type="curve" smooth="yes"/>
      <point x="362" y="-37"/>
      <point x="310" y="-17"/>
      <point x="256" y="-17" type="curve" smooth="yes"/>
      <point x="256" y="-17"/>
      <point x="239" y="-17"/>
      <point x="231" y="-17" type="curve"/>
      <point x="231" y="-51" type="line"/>
      <point x="253" y="-51" type="line" smooth="yes"/>
      <point x="280" y="-51"/>
      <point x="311" y="-66"/>
      <point x="311" y="-97" type="curve" smooth="yes"/>
      <point x="311" y="-140"/>
      <point x="272" y="-151"/>
      <point x="235" y="-151" type="curve" smooth="yes"/>
      <point x="202" y="-151"/>
      <point x="179" y="-145"/>
      <point x="166" y="-138" type="curve"/>
    </contour>
  </outline>
</glyph>
<glyph name="igrave" format="1">
  <advance width="260"/>
  <unicode hex="00EC"/>
  <outline>
    <contour>
      <point x="165" y="0" type="line"/>
      <point x="165" y="511" type="line"/>
      <point x="114" y="511" type="line"/>
      <point x="114" y="0" type="line"/>
    </contour>
    <contour>
      <point x="167" y="575" type="line"/>
      <point x="71" y="720" type="line"/>
      <point x="6" y="720" type="line"/>
      <point x="6" y="717" type="line"/>
      <point x="117" y="575" type="line"/>
    </contour>
  </outline>
</glyph>
<glyph name="ntilde" format="1">
  <advance width="593"/>
  <unicode hex="00F1"/>
  <outline>
    <contour>
      <point x="485" y="0" type="line"/>
      <point x="485" y="329" type="line" smooth="yes"/>
      <point x="485" y="462"/>
      <point x="402" y="521"/>
      <point x="296" y="521" type="curve" smooth="yes"/>
      <point x="229" y="521"/>
      <point x="163" y="489"/>
      <point x="128" y="435" type="curve"/>
      <point x="117" y="511" type="line"/>
      <point x="83" y="511" type="line"/>
      <point x="83" y="0" type="line"/>
      <point x="134" y="0" type="line"/>
      <point x="134" y="314" type="line" smooth="yes"/>
      <point x="134" y="406"/>
      <point x="201" y="475"/>
      <point x="291" y="475" type="curve" smooth="yes"/>
      <point x="381" y="475"/>
      <point x="435" y="425"/>
      <point x="435" y="314" type="curve" smooth="yes"/>
      <point x="435" y="0" type="line"/>
    </contour>
    <contour>
      <point x="435" y="719" type="line"/>
      <point x="428" y="696"/>
      <point x="411" y="687"/>
      <point x="378" y="687" type="curve" smooth="yes"/>
      <point x="324" y="687"/>
      <point x="275" y="719"/>
      <point x="211" y="719" type="curve" smooth="yes"/>
      <point x="133" y="719"/>
      <point x="110" y="669"/>
      <point x="110" y="637" type="curve"/>
      <point x="147" y="637" type="line"/>
      <point x="154" y="660"/>
      <point x="171" y="669"/>
      <point x="204" y="669" type="curve" smooth="yes"/>
      <point x="258" y="669"/>
      <point x="307" y="637"/>
      <point x="371" y="637" type="curve" smooth="yes"/>
      <point x="450" y="637"/>
      <point x="472" y="687"/>
      <point x="472" y="719" type="curve"/>
    </contour>
  </outline>
</glyph>
<glyph name="oacute" format="1">
  <advance width="574"/>
  <unicode hex="00F3"/>
  <outline>
    <contour>
      <point x="394" y="-10"/>
      <point x="484" y="83"/>
      <point x="484" y="248" type="curve" smooth="yes"/>
      <point x="484" y="263" type="line" smooth="yes"/>
      <point x="484" y="428"/>
      <point x="394" y="521"/>
      <point x="268" y="521" type="curve" smooth="yes"/>
      <point x="142" y="521"/>
      <point x="52" y="428"/>
      <point x="52" y="263" type="curve" smooth="yes"/>
      <point x="52" y="248" type="line" smooth="yes"/>
      <point x="52" y="83"/>
      <point x="142" y="-10"/>
      <point x="268" y="-10" type="curve" smooth="yes"/>
    </contour>
    <contour>
      <point x="176" y="36"/>
      <point x="103" y="103"/>
      <point x="103" y="242" type="curve" smooth="yes"/>
      <point x="103" y="269" type="line" smooth="yes"/>
      <point x="103" y="408"/>
      <point x="176" y="475"/>
      <point x="268" y="475" type="curve" smooth="yes"/>
      <point x="360" y="475"/>
      <point x="433" y="408"/>
      <point x="433" y="269" type="curve" smooth="yes"/>
      <point x="433" y="242" type="line" smooth="yes"/>
      <point x="433" y="103"/>
      <point x="360" y="36"/>
      <point x="268" y="36" type="curve" smooth="yes"/>
    </contour>
    <contour>
      <point x="304" y="575" type="line"/>
      <point x="415" y="717" type="line"/>
      <point x="415" y="720" type="line"/>
      <point x="350" y="720" type="line"/>
      <point x="254" y="575" type="line"/>
    </contour>
  </outline>
</glyph>
<glyph name="oslash" format="1">
  <advance width="574"/>
  <unicode hex="00F8"/>
  <outline>
    <contour>
      <point x="52" y="-55" type="line"/>
      <point x="97" y="-55" type="line"/>
      <point x="147" y="26" type="line"/>
      <point x="181" y="2"/>
      <point x="222" y="-10"/>
      <point x="268" y="-10" type="curve" smooth="yes"/>
      <point x="394" y="-10"/>
      <point x="484" y="83"/>
      <point x="484" y="248" type="curve" smooth="yes"/>
      <point x="484" y="263" type="line" smooth="yes"/>
      <point x="484" y="350"/>
      <point x="459" y="417"/>
      <point x="417" y="461" type="curve"/>
      <point x="484" y="569" type="line"/>
      <point x="439" y="569" type="line"/>
      <point x="387" y="485" type="line"/>
      <point x="354" y="508"/>
      <point x="313" y="521"/>
      <point x="268" y="521" type="curve" smooth="yes"/>
      <point x="142" y="521"/>
      <point x="52" y="428"/>
      <point x="52" y="263" type="curve" smooth="yes"/>
      <point x="52" y="248" type="line" smooth="yes"/>
      <point x="52" y="161"/>
      <point x="76" y="95"/>
      <point x="118" y="51" type="curve"/>
    </contour>
    <contour>
      <point x="232" y="36"/>
      <point x="199" y="46"/>
      <point x="172" y="66" type="curve"/>
      <point x="390" y="418" type="line"/>
      <point x="417" y="384"/>
      <point x="433" y="334"/>
      <point x="433" y="269" type="curve" smooth="yes"/>
      <point x="433" y="242" type="line" smooth="yes"/>
      <point x="433" y="103"/>
      <point x="360" y="36"/>
      <point x="268" y="36" type="curve" smooth="yes"/>
    </contour>
    <contour>
      <point x="103" y="269" type="line" smooth="yes"/>
      <point x="103" y="408"/>
      <point x="176" y="475"/>
      <point x="268" y="475" type="curve" smooth="yes"/>
      <point x="303" y="475"/>
      <point x="336" y="465"/>
      <point x="362" y="445" type="curve"/>
      <point x="145" y="94" type="line"/>
      <point x="119" y="128"/>
      <point x="103" y="177"/>
      <point x="103" y="242" type="curve" smooth="yes"/>
    </contour>
    <contour>
      <point x="267" y="511" type="move" name="top"/>
    </contour>
  </outline>
</glyph>
<glyph name="udieresis" format="1">
  <advance width="618"/>
  <unicode hex="00FC"/>
  <outline>
    <contour>
      <point x="430" y="36"/>
      <point x="445" y="-10"/>
      <point x="494" y="-10" type="curve" smooth="yes"/>
      <point x="518" y="-10"/>
      <point x="540" y="-3"/>
      <point x="558" y="9" type="curve"/>
      <point x="558" y="52" type="line"/>
      <point x="543" y="43"/>
      <point x="523" y="36"/>
      <point x="508" y="36" type="curve" smooth="yes"/>
      <point x="493" y="36"/>
      <point x="481" y="45"/>
      <point x="481" y="69" type="curve" smooth="yes"/>
      <point x="481" y="511" type="line"/>
      <point x="430" y="511" type="line"/>
      <point x="430" y="197" type="line" smooth="yes"/>
      <point x="430" y="105"/>
      <point x="363" y="36"/>
      <point x="273" y="36" type="curve" smooth="yes"/>
      <point x="183" y="36"/>
      <point x="129" y="86"/>
      <point x="129" y="197" type="curve" smooth="yes"/>
      <point x="129" y="511" type="line"/>
      <point x="78" y="511" type="line"/>
      <point x="78" y="182" type="line" smooth="yes"/>
      <point x="78" y="49"/>
      <point x="159" y="-10"/>
      <point x="265" y="-10" type="curve" smooth="yes"/>
      <point x="332" y="-10"/>
      <point x="395" y="22"/>
      <point x="430" y="76" type="curve"/>
    </contour>
    <contour>
      <point x="156" y="651" type="line"/>
      <point x="221" y="651" type="line"/>
      <point x="221" y="720" type="line"/>
      <point x="156" y="720" type="line"/>
    </contour>
    <contour>
      <point x="332" y="651" type="line"/>
      <point x="397" y="651" type="line"/>
      <point x="397" y="720" type="line"/>
      <point x="332" y="720" type="line"/>
    </contour>
  </outline>
</glyph>
<glyph name="OE" format="1">
  <advance width="1032"/>
  <unicode hex="0152"/>
  <outline>
    <contour>
      <point x="973" y="0" type="line"/>
      <point x="962" y="48" type="line"/>
      <point x="593" y="48" type="line"/>
      <point x="593" y="326" type="line"/>
      <point x="912" y="326" type="line"/>
      <point x="912" y="374" type="line"/>
      <point x="593" y="374" type="line"/>
      <point x="593" y="638" type="line"/>
      <point x="953" y="638" type="line"/>
      <point x="963" y="686" type="line"/>
      <point x="539" y="686" type="line"/>
      <point x="539" y="598" type="line"/>
      <point x="490" y="673"/>
      <point x="413" y="696"/>
      <point x="327" y="696" type="curve" smooth="yes"/>
      <point x="180" y="696"/>
      <point x="61" y="631"/>
      <point x="61" y="356" type="curve" smooth="yes"/>
      <point x="61" y="330" type="line" smooth="yes"/>
      <point x="61" y="55"/>
      <point x="180" y="-10"/>
      <point x="327" y="-10" type="curve" smooth="yes"/>
      <point x="413" y="-10"/>
      <point x="490" y="12"/>
      <point x="539" y="87" type="curve"/>
      <point x="539" y="0" type="line"/>
    </contour>
    <contour>
      <point x="210" y="38"/>
      <point x="115" y="91"/>
      <point x="115" y="318" type="curve" smooth="yes"/>
      <point x="115" y="368" type="line" smooth="yes"/>
      <point x="115" y="595"/>
      <point x="210" y="648"/>
      <point x="327" y="648" type="curve" smooth="yes"/>
      <point x="444" y="648"/>
      <point x="539" y="595"/>
      <point x="539" y="368" type="curve" smooth="yes"/>
      <point x="539" y="318" type="line" smooth="yes"/>
      <point x="539" y="91"/>
      <point x="444" y="38"/>
      <point x="327" y="38" type="curve" smooth="yes"/>
    </contour>
    <contour>
      <point x="516" y="686" type="move" name="top"/>
    </contour>
  </outline>
</glyph>
<glyph name="Ydieresis" format="1">
  <advance width="572"/>
  <unicode hex="0178"/>
  <outline>
    <contour>
      <point x="541" y="686" type="line"/>
      <point x="486" y="686" type="line"/>
      <point x="272" y="321" type="line"/>
      <point x="269" y="321" type="line"/>
      <point x="58" y="686" type="line"/>
      <point x="-5" y="686" type="line"/>
      <point x="241" y="266" type="line"/>
      <point x="241" y="0" type="line"/>
      <point x="295" y="0" type="line"/>
      <point x="295" y="266" type="line"/>
    </contour>
    <contour>
      <point x="151" y="750" type="line"/>
      <point x="216" y="750" type="line"/>
      <point x="216" y="819" type="line"/>
      <point x="151" y="819" type="line"/>
    </contour>
    <contour>
      <point x="327" y="750" type="line"/>
      <point x="392" y="750" type="line"/>
      <point x="392" y="819" type="line"/>
      <point x="327" y="819" type="line"/>
    </contour>
  </outline>
</glyph>
<glyph name="zcaron" format="1">
  <advance width="463"/>
  <unicode hex="017E"/>
  <outline>
    <contour>
      <point x="396" y="0" type="line"/>
      <point x="396" y="46" type="line"/>
      <point x="110" y="46" type="line"/>
      <point x="388" y="487" type="line"/>
      <point x="388" y="511" type="line"/>
      <point x="53" y="511" type="line"/>
      <point x="53" y="465" type="line"/>
      <point x="313" y="465" type="line"/>
      <point x="36" y="24" type="line"/>
      <point x="36" y="0" type="line"/>
    </contour>
    <contour>
      <point x="193" y="575" type="line"/>
      <point x="251" y="575" type="line"/>
      <point x="385" y="720" type="line"/>
      <point x="325" y="720" type="line"/>
      <point x="222" y="623" type="line"/>
      <point x="119" y="720" type="line"/>
      <point x="59" y="720" type="line"/>
    </contour>
  </outline>
</glyph>
<glyph name="breve" format="1">
  <advance width="520"/>
  <unicode hex="02D8"/>
  <outline>
    <contour>
      <point x="367" y="613"/>
      <point x="453" y="680"/>
      <point x="453" y="737" type="curve"/>
      <point x="397" y="737" type="line"/>
      <point x="380" y="687"/>
      <point x="325" y="662"/>
      <point x="260" y="662" type="curve" smooth="yes"/>
      <point x="195" y="662"/>
      <point x="140" y="687"/>
      <point x="124" y="737" type="curve"/>
      <point x="68" y="737" type="line"/>
      <point x="68" y="680"/>
      <point x="154" y="613"/>
      <point x="260" y="613" type="curve" smooth="yes"/>
    </contour>
    <contour>
      <point x="261" y="511" type="move" name="_top"/>
    </contour>
  </outline>
</glyph>
<glyph name="uni0326" format="1">
  <advance width="238"/>
  <unicode hex="0326"/>
  <outline>
    <contour>
      <point x="104" y="-250" type="line"/>
      <point x="134" y="-138" type="line"/>
      <point x="134" y="-80" type="line"/>
      <point x="69" y="-80" type="line"/>
      <point x="69" y="-149" type="line"/>
      <point x="93" y="-149" type="line"/>
      <point x="93" y="-149"/>
      <point x="71" y="-250"/>
      <point x="70" y="-250" type="curve"/>
    </contour>
    <contour>
      <point x="103" y="0" type="move" name="_bottom"/>
    </contour>
  </outline>
</glyph>
<glyph name="Omega" format="1">
  <advance width="699"/>
  <unicode hex="03A9"/>
  <outline>
    <contour>
      <point x="600" y="356" type="line" smooth="yes"/>
      <point x="600" y="631"/>
      <point x="481" y="696"/>
      <point x="334" y="696" type="curve" smooth="yes"/>
      <point x="187" y="696"/>
      <point x="68" y="631"/>
      <point x="68" y="356" type="curve" smooth="yes"/>
      <point x="68" y="330" type="line" smooth="yes"/>
      <point x="68" y="182"/>
      <point x="105" y="94"/>
      <point x="163" y="44" type="curve"/>
      <point x="90" y="48" type="line"/>
      <point x="45" y="48" type="line"/>
      <point x="45" y="0" type="line"/>
      <point x="292" y="0" type="line"/>
      <point x="292" y="29" type="line"/>
      <point x="195" y="42"/>
      <point x="122" y="106"/>
      <point x="122" y="306" type="curve" smooth="yes"/>
      <point x="122" y="368" type="line" smooth="yes"/>
      <point x="122" y="595"/>
      <point x="217" y="648"/>
      <point x="334" y="648" type="curve" smooth="yes"/>
      <point x="451" y="648"/>
      <point x="546" y="595"/>
      <point x="546" y="368" type="curve" smooth="yes"/>
      <point x="546" y="306" type="line" smooth="yes"/>
      <point x="546" y="106"/>
      <point x="472" y="41"/>
      <point x="374" y="29" type="curve"/>
      <point x="374" y="0" type="line"/>
      <point x="621" y="0" type="line"/>
      <point x="621" y="48" type="line"/>
      <point x="576" y="48" type="line"/>
      <point x="505" y="44" type="line"/>
      <point x="563" y="94"/>
      <point x="600" y="182"/>
      <point x="600" y="330" type="curve" smooth="yes"/>
    </contour>
    <contour>
      <point x="20" y="686" type="move" name="topleft"/>
    </contour>
  </outline>
</glyph>
<glyph name="pi" format="1">
  <advance width="628"/>
  <unicode hex="03C0"/>
  <outline>
    <contour>
      <point x="548" y="465" type="line"/>
      <point x="555" y="510" type="line"/>
      <point x="160" y="510" type="line" smooth="yes"/>
      <point x="85" y="510"/>
      <point x="45" y="499"/>
      <point x="20" y="484" type="curve"/>
      <point x="31" y="452" type="line"/>
      <point x="53" y="460"/>
      <point x="84" y="465"/>
      <point x="153" y="465" type="curve"/>
      <point x="148" y="331"/>
      <point x="118" y="103"/>
      <point x="80" y="0" type="curve"/>
      <point x="129" y="0" type="line"/>
      <point x="166" y="90"/>
      <point x="197" y="336"/>
      <point x="203" y="465" type="curve"/>
      <point x="408" y="465" type="line"/>
      <point x="408" y="137" type="line" smooth="yes"/>
      <point x="408" y="55"/>
      <point x="416" y="15"/>
      <point x="425" y="0" type="curve"/>
      <point x="473" y="0" type="line"/>
      <point x="464" y="26"/>
      <point x="458" y="61"/>
      <point x="458" y="145" type="curve" smooth="yes"/>
      <point x="458" y="465" type="line"/>
    </contour>
  </outline>
</glyph>
<glyph name="quoteright" format="1">
  <advance width="219"/>
  <unicode hex="2019"/>
  <outline>
    <contour>
      <point x="96" y="516" type="line"/>
      <point x="126" y="628" type="line"/>
      <point x="126" y="686" type="line"/>
      <point x="61" y="686" type="line"/>
      <point x="61" y="617" type="line"/>
      <point x="85" y="617" type="line"/>
      <point x="85" y="617"/>
      <point x="63" y="516"/>
      <point x="62" y="516" type="curve"/>
    </contour>
  </outline>
</glyph>
<glyph name="perthousand" format="1">
  <advance width="1033"/>
  <unicode hex="2030"/>
  <outline>
    <contour>
      <point x="587" y="686" type="line"/>
      <point x="528" y="686" type="line"/>
      <point x="111" y="0" type="line"/>
      <point x="171" y="0" type="line"/>
    </contour>
    <contour>
      <point x="273" y="566" type="line" smooth="yes"/>
      <point x="273" y="632"/>
      <point x="228" y="686"/>
      <point x="153" y="686" type="curve" smooth="yes"/>
      <point x="78" y="686"/>
      <point x="33" y="632"/>
      <point x="33" y="566" type="curve" smooth="yes"/>
      <point x="33" y="456" type="line" smooth="yes"/>
      <point x="33" y="390"/>
      <point x="78" y="336"/>
      <point x="153" y="336" type="curve" smooth="yes"/>
      <point x="228" y="336"/>
      <point x="273" y="390"/>
      <point x="273" y="456" type="curve" smooth="yes"/>
    </contour>
    <contour>
      <point x="223" y="452" type="line" smooth="yes"/>
      <point x="223" y="413"/>
      <point x="199" y="382"/>
      <point x="153" y="382" type="curve" smooth="yes"/>
      <point x="109" y="382"/>
      <point x="83" y="413"/>
      <point x="83" y="452" type="curve" smooth="yes"/>
      <point x="83" y="570" type="line" smooth="yes"/>
      <point x="83" y="609"/>
      <point x="109" y="640"/>
      <point x="153" y="640" type="curve" smooth="yes"/>
      <point x="199" y="640"/>
      <point x="223" y="609"/>
      <point x="223" y="570" type="curve" smooth="yes"/>
    </contour>
    <contour>
      <point x="663" y="229" type="line" smooth="yes"/>
      <point x="663" y="295"/>
      <point x="618" y="349"/>
      <point x="543" y="349" type="curve" smooth="yes"/>
      <point x="468" y="349"/>
      <point x="423" y="295"/>
      <point x="423" y="229" type="curve" smooth="yes"/>
      <point x="423" y="119" type="line" smooth="yes"/>
      <point x="423" y="53"/>
      <point x="468" y="-1"/>
      <point x="543" y="-1" type="curve" smooth="yes"/>
      <point x="618" y="-1"/>
      <point x="663" y="53"/>
      <point x="663" y="119" type="curve" smooth="yes"/>
    </contour>
    <contour>
      <point x="613" y="115" type="line" smooth="yes"/>
      <point x="613" y="76"/>
      <point x="589" y="45"/>
      <point x="543" y="45" type="curve" smooth="yes"/>
      <point x="499" y="45"/>
      <point x="473" y="76"/>
      <point x="473" y="115" type="curve" smooth="yes"/>
      <point x="473" y="233" type="line" smooth="yes"/>
      <point x="473" y="272"/>
      <point x="499" y="303"/>
      <point x="543" y="303" type="curve" smooth="yes"/>
      <point x="589" y="303"/>
      <point x="613" y="272"/>
      <point x="613" y="233" type="curve" smooth="yes"/>
    </contour>
    <contour>
      <point x="992" y="229" type="line" smooth="yes"/>
      <point x="992" y="295"/>
      <point x="947" y="349"/>
      <point x="872" y="349" type="curve" smooth="yes"/>
      <point x="797" y="349"/>
      <point x="752" y="295"/>
      <point x="752" y="229" type="curve" smooth="yes"/>
      <point x="752" y="119" type="line" smooth="yes"/>
      <point x="752" y="53"/>
      <point x="797" y="-1"/>
      <point x="872" y="-1" type="curve" smooth="yes"/>
      <point x="947" y="-1"/>
      <point x="992" y="53"/>
      <point x="992" y="119" type="curve" smooth="yes"/>
    </contour>
    <contour>
      <point x="942" y="115" type="line" smooth="yes"/>
      <point x="942" y="76"/>
      <point x="918" y="45"/>
      <point x="872" y="45" type="curve" smooth="yes"/>
      <point x="828" y="45"/>
      <point x="802" y="76"/>
      <point x="802" y="115" type="curve" smooth="yes"/>
      <point x="802" y="233" type="line" smooth="yes"/>
      <point x="802" y="272"/>
      <point x="828" y="303"/>
      <point x="872" y="303" type="curve" smooth="yes"/>
      <point x="918" y="303"/>
      <point x="942" y="272"/>
      <point x="942" y="233" type="curve" smooth="yes"/>
    </contour>
  </outline>
</glyph>
<glyph name="guilsinglleft" format="1">
  <advance width="278"/>
  <unicode hex="2039"/>
  <outline>
    <contour>
      <point x="213" y="163" type="line"/>
      <point x="116" y="337" type="line"/>
      <point x="213" y="511" type="line"/>
      <point x="172" y="511" type="line"/>
      <point x="49" y="337" type="line"/>
      <point x="172" y="163" type="line"/>
    </contour>
  </outline>
</glyph>
<glyph name="summation" format="1">
  <advance width="606"/>
  <unicode hex="2211"/>
  <outline>
    <contour>
      <point x="533" y="-96" type="line"/>
      <point x="533" y="-41" type="line"/>
      <point x="110" y="-41" type="line"/>
      <point x="109" y="-38" type="line"/>
      <point x="375" y="307" type="line"/>
      <point x="128" y="643" type="line"/>
      <point x="128" y="647" type="line"/>
      <point x="518" y="647" type="line"/>
      <point x="518" y="695" type="line"/>
      <point x="39" y="695" type="line"/>
      <point x="39" y="670" type="line"/>
      <point x="311" y="302" type="line"/>
      <point x="27" y="-65" type="line"/>
      <point x="27" y="-96" type="line"/>
    </contour>
  </outline>
</glyph>
<glyph name="minus" format="1">
  <advance width="615"/>
  <unicode hex="2212"/>
  <outline>
    <contour>
      <point x="51" y="226" type="line"/>
      <point x="562" y="226" type="line"/>
      <point x="562" y="283" type="line"/>
      <point x="51" y="283" type="line"/>
    </contour>
  </outline>
</glyph>
<glyph name="radical" format="1">
  <advance width="566"/>
  <unicode hex="221A"/>
  <outline>
    <contour>
      <point x="508" y="805" type="line"/>
      <point x="457" y="805" type="line"/>
      <point x="253" y="-67" type="line"/>
      <point x="251" y="-50"/>
      <point x="245" y="-27"/>
      <point x="238" y="0" type="curve"/>
      <point x="107" y="371" type="line"/>
      <point x="-23" y="321" type="line"/>
      <point x="-9" y="279" type="line"/>
      <point x="65" y="307" type="line"/>
      <point x="226" y="-146" type="line"/>
      <point x="287" y="-146" type="line"/>
    </contour>
  </outline>
</glyph>
<glyph name="caron.alt" format="1">
  <advance width="219"/>
  <outline>
    <component base="quoteright"/>
    <contour>
      <point x="92" y="686" type="move" name="_topright"/>
    </contour>
  </outline>
</glyph>
